Coordinates
version=1
nRows=10
nColumns=63
inDegrees=yes

Units are S.I. units (second, meters, Newtons, ...)
If the header above contains a line with 'inDegrees', this indicates whether rotational values are in degrees (yes) or radians (no).

endheader
time	pelvis_tilt	pelvis_list	pelvis_rotation	pelvis_tx	pelvis_ty	pelvis_tz	hip_flexion_r	hip_adduction_r	hip_rotation_r	knee_angle_r	knee_angle_r_beta	ankle_angle_r	subtalar_angle_r	mtp_angle_r	hip_flexion_l	hip_adduction_l	hip_rotation_l	knee_angle_l	knee_angle_l_beta	ankle_angle_l	subtalar_angle_l	mtp_angle_l	L5_S1_Flex_Ext	L5_S1_Lat_Bending	L5_S1_axial_rotation	L4_L5_Flex_Ext	L4_L5_Lat_Bending	L4_L5_axial_rotation	L3_L4_Flex_Ext	L3_L4_Lat_Bending	L3_L4_axial_rotation	L2_L3_Flex_Ext	L2_L3_Lat_Bending	L2_L3_axial_rotation	L1_L2_Flex_Ext	L1_L2_Lat_Bending	L1_L2_axial_rotation	L1_T12_Flex_Ext	L1_T12_Lat_Bending	L1_T12_axial_rotation	Abs_r3	Abs_r2	Abs_r1	Abs_t1	Abs_t2	neck_flexion	neck_bending	neck_rotation	arm_flex_r	arm_add_r	arm_rot_r	elbow_flex_r	pro_sup_r	wrist_flex_r	wrist_dev_r	arm_flex_l	arm_add_l	arm_rot_l	elbow_flex_l	pro_sup_l	wrist_flex_l	wrist_dev_l
      0.00000000	     -0.85166410	    -10.01588693	    110.91685148	      0.17208748	      0.38716839	      0.62738985	     -7.12660695	      0.50889422	    -20.71416205	      3.05327337	      0.05328967	     18.75025903	      0.29905045	      0.00000000	     -6.49065778	      2.30305890	     -1.68773274	      0.31158452	      0.00543818	     22.65543885	     10.04774709	      0.00000000	      0.13901150	      0.00134273	     -1.07031515	      0.25815826	      0.00178583	     -1.13720985	      0.22838199	      0.00326472	     -1.13720985	      0.15887624	      0.00326472	     -0.93652576	      0.12908608	      0.00273810	     -0.86963106	      0.07943117	      0.00207989	     -0.80273637	      0.99294524	      0.01518925	     -5.95277179	      0.00000000	      0.00000000	     26.57341685	      0.64339787	      3.84003949	     21.18320096	     -8.19730442	     93.95456508	     37.12939925	     18.02017748	      0.48351414	      8.62279174	     10.31138840	      0.87430279	     49.08035054	     37.05098349	     41.88446194	     -3.62737619	     12.47057488
      0.01666667	     -1.34676256	    -10.21523352	    110.73404803	      0.17386617	      0.38634235	      0.62876113	     -7.13630827	      0.02116115	    -20.65366992	      2.82607461	      0.04932431	     19.62167516	      0.80985041	      0.00000000	     -6.36828513	      2.82718249	     -0.68753708	      0.31350617	      0.00547171	     23.22218304	      9.80049222	      0.00000000	      0.12352360	     -0.08549285	     -1.03507588	      0.22939567	     -0.11370550	     -1.09976812	      0.20293692	     -0.20786733	     -1.09976812	      0.14117512	     -0.20786733	     -0.90569140	      0.11470401	     -0.17433703	     -0.84099915	      0.07058138	     -0.13242843	     -0.77630691	      0.88231670	     -0.96711227	     -5.75678153	      0.00000000	      0.00000000	     26.57163336	      0.94307173	      2.98257094	     21.28318006	     -7.82919412	     94.52183531	     37.20388829	     17.98937526	      0.04718151	      9.68706820	     10.70606526	      0.24312925	     50.12111800	     37.35617643	     43.06077914	     -3.43550226	     12.72427434
      0.03333333	     -1.44644755	    -10.52397826	    110.60902999	      0.17481041	      0.38539586	      0.62979412	     -6.86218704	     -0.19836330	    -20.52810564	      2.81431551	      0.04911907	     19.80349596	      1.04300246	      0.00000000	     -6.02261644	      3.03363023	     -0.16275887	      0.32011799	      0.00558711	     23.74854309	      9.84516759	      0.00000000	      0.14306737	     -0.11529834	     -1.02172109	      0.26569042	     -0.15334680	     -1.08557866	      0.23504538	     -0.28033639	     -1.08557866	      0.16351170	     -0.28033639	     -0.89400596	      0.13285236	     -0.23511638	     -0.83014839	      0.08174870	     -0.17859714	     -0.76629082	      1.02191593	     -1.30427793	     -5.68250620	      0.00000000	      0.00000000	     26.72041851	      0.97980809	      2.75128455	     21.20907058	     -7.70904042	     94.76165703	     37.30353084	     18.01039368	     -0.02325880	     10.00371191	     10.81269757	      0.10807601	     50.41611785	     37.28403061	     43.39025355	     -3.40488864	     12.82838856
      0.05000000	     -1.88096149	    -10.76666352	    110.32493167	      0.17588209	      0.38451313	      0.63057203	     -6.79081852	     -0.72755274	    -20.66356173	      2.85284090	      0.04979147	     20.04657122	      1.58560643	      0.00000000	     -5.89180772	      3.57068803	      0.53815476	      0.31211359	      0.00544741	     23.93846936	      8.80628453	      0.00000000	      0.12583001	     -0.18940333	     -0.97172191	      0.23367892	     -0.25190642	     -1.03245453	      0.20672613	     -0.46051524	     -1.03245453	      0.14381112	     -0.46051524	     -0.85025667	      0.11684575	     -0.38623126	     -0.78952405	      0.07189927	     -0.29338575	     -0.72879143	      0.89879121	     -2.14256829	     -5.40442575	      0.00000000	      0.00000000	     27.04913240	      1.00555775	      1.35014343	     21.39078701	     -7.31493393	     95.32747390	     37.30369503	     17.66042994	     -0.19543068	     11.12270331	     11.20598669	     -0.50405520	     51.46748792	     37.67952535	     44.88587983	     -3.07645302	     13.41233891
      0.06666667	     -1.88914965	    -11.15494201	    110.20239373	      0.17618526	      0.38342309	      0.63119535	     -6.36296621	     -0.97674455	    -21.40939784	      3.12629589	      0.05456416	     20.02650780	      2.74448450	      0.00000000	     -5.49260214	      3.77575459	      3.90491137	      0.29102020	      0.00507926	     23.53286794	      3.90072308	      0.00000000	      0.15605175	     -0.20799520	     -0.99711902	      0.28980370	     -0.27663362	     -1.05943896	      0.25637741	     -0.50571953	     -1.05943896	      0.17835154	     -0.50571953	     -0.87247915	      0.14490965	     -0.42414381	     -0.81015921	      0.08916797	     -0.32218457	     -0.74783927	      1.11466202	     -2.35288331	     -5.54567688	      0.00000000	      0.00000000	     27.35184071	      0.91163669	      0.80391583	     21.74463544	     -7.05082320	     97.13342927	     37.54692430	     11.73799376	     -0.20177522	     11.44433195	     10.84327902	     -0.48654620	     49.94472071	     37.74320943	     48.00183249	     -2.36073092	     14.36686934
      0.08333333	     -1.86528245	    -11.46336140	    110.00560285	      0.17632795	      0.38244526	      0.63146892	     -6.04775059	     -1.12177171	    -21.11480501	      3.30187140	      0.05762853	     19.61321277	      2.49514684	      0.00000000	     -5.18236748	      3.90399668	      3.63809000	      0.29039492	      0.00506835	     23.71802767	      3.78380143	      0.00000000	      0.17921130	     -0.21401614	     -1.00134139	      0.33281331	     -0.28464146	     -1.06392523	      0.29442625	     -0.52035884	     -1.06392523	      0.20482060	     -0.52035884	     -0.87617372	      0.16641562	     -0.43642171	     -0.81358988	      0.10240134	     -0.33151100	     -0.75100604	      1.28008843	     -2.42099334	     -5.56916041	      0.00000000	      0.00000000	     27.59071413	      0.84815636	      0.59009062	     21.77733161	     -6.88813495	     97.52349031	     37.49349130	     12.82764065	      0.13089757	     11.45573389	     10.82077438	     -0.68062463	     50.30969253	     37.87188958	     47.90950269	     -2.25774995	     14.58634774
      0.10000000	     -1.84134832	    -11.68087049	    109.63237737	      0.17653677	      0.38157283	      0.63156029	     -5.73083818	     -1.25332609	    -19.79374801	      3.59356052	      0.06271946	     19.08238677	      1.09634161	      0.00000000	     -4.99443117	      4.02337816	      3.23043484	      0.28889066	      0.00504209	     23.76036977	      3.21767480	      0.00000000	      0.19652654	     -0.21430797	     -1.01585080	      0.36496943	     -0.28502960	     -1.07934147	      0.32287345	     -0.52106841	     -1.07934147	      0.22461018	     -0.52106841	     -0.88886945	      0.18249454	     -0.43701682	     -0.82537877	      0.11229526	     -0.33196305	     -0.76188810	      1.40376940	     -2.42429466	     -5.64985738	      0.00000000	      0.00000000	     27.76359024	      0.90754472	      0.57261093	     22.29446293	     -6.42199317	     99.70955510	     36.89868090	     14.14353904	      1.62104395	     10.96008398	     10.54218456	     -0.84410921	     49.90568524	     38.14291928	     48.10209414	     -2.11121464	     15.55484529
      0.11666667	     -1.76705893	    -11.81558100	    109.23334667	      0.17664415	      0.38079144	      0.63157148	     -5.45662536	     -1.32810739	    -19.14634694	      3.90386739	      0.06813534	     18.88984158	      0.73027767	      0.00000000	     -4.89552508	      4.06203990	      2.39818893	      0.28919221	      0.00504736	     23.85735506	      3.14812842	      0.00000000	      0.20875476	     -0.20418204	     -1.04162063	      0.38767847	     -0.27156212	     -1.10672191	      0.34296320	     -0.49644822	     -1.10672191	      0.23858582	     -0.49644822	     -0.91141805	      0.19384967	     -0.41636802	     -0.84631676	      0.11928247	     -0.31627798	     -0.78121547	      1.49111438	     -2.30974810	     -5.79318143	      0.00000000	      0.00000000	     27.87597085	      1.05635923	      0.82648458	     22.76604696	     -6.01584806	    101.43880131	     36.55421547	     16.52071853	      2.05131837	     11.09871008	     10.26778771	     -0.97388460	     49.56571336	     38.35698624	     48.43088143	     -1.90150127	     16.28834054
      0.13333333	     -1.63531196	    -11.92374762	    108.91136612	      0.17667653	      0.38008917	      0.63149729	     -5.18343723	     -1.30127098	    -18.32423519	      4.17804179	      0.07292059	     18.68333407	     -0.04787051	      0.00000000	     -4.81094583	      4.01762526	      1.26786868	      0.29173755	      0.00509178	     24.04758284	      3.63301737	      0.00000000	      0.22870821	     -0.18296648	     -1.15959777	      0.42473401	     -0.24334542	     -1.23207263	      0.37574472	     -0.44486469	     -1.23207263	      0.26139061	     -0.44486469	     -1.01464805	      0.21237844	     -0.37310524	     -0.94217319	      0.13068387	     -0.28341507	     -0.86969833	      1.63363986	     -2.06975339	     -6.44933493	      0.00000000	      0.00000000	     27.94172889	      1.59204539	      2.03024149	     23.53443872	     -5.31708182	    104.34329327	     35.73537595	     23.17046585	      3.09528843	      9.47421235	      9.49584170	     -1.01546697	     47.62601465	     38.76338092	     50.28704291	     -1.53795169	     17.18418645
      0.15000000	     -1.54700496	    -11.89549979	    108.48992544	      0.17669067	      0.37966498	      0.63133657	     -5.04025014	     -1.28599140	    -17.57104402	      4.44301869	      0.07754530	     18.73902093	     -0.51834303	      0.00000000	     -4.88615433	      3.98330613	     -0.80205136	      0.29773543	      0.00519646	     24.35260681	      5.31624349	      0.00000000	      0.22810057	     -0.16814645	     -1.20577324	      0.42360557	     -0.22363478	     -1.28113407	      0.37474643	     -0.40883128	     -1.28113407	      0.26069614	     -0.40883128	     -1.05505159	      0.21181419	     -0.34288424	     -0.97969076	      0.13033667	     -0.26045885	     -0.90432993	      1.62929956	     -1.90210628	     -6.70614905	      0.00000000	      0.00000000	     27.98345692	      1.93587135	      2.36878204	     23.41097594	     -5.10857920	    102.75196390	     35.10956002	     43.61182403	      2.74637479	      7.48261341	      8.91216237	     -0.75738199	     45.49823575	     38.70246388	     54.71153686	     -0.52455461	     17.89629623
